# xmcd
# 
# Track frame offsets:
#     150
#     22607
#     37315
#     71010
#     93322
#     114565
#     157575
# 
# Disc length: 2473
# 
# Revision: 0
# Processed by: cddbd v1.5.2PL0 Copyright (c) Steve Scherf et al.
# Submitted via: BonkEnc v1.0.8
# 
DISCID=4b09a707
DTITLE=Tom Pierson - Right
DYEAR=2000
DGENRE=Contemporary Jazz
TTITLE0=For Kaori Shintaku
TTITLE1=Mr. Baggy
TTITLE2=Chandra Lowery's Samba
TTITLE3=Deja Vu
TTITLE4=Cockroaches
TTITLE5=Telepathy
TTITLE6=As Darkness Falls
EXTD=
EXTT0=
EXTT1=
EXTT2=
EXTT3=
EXTT4=
EXTT5=
EXTT6=
PLAYORDER=
